<?xml version="1.0" standalone="no"?>
<!DOCTYPE svg PUBLIC "-//W3C//DTD SVG 20010904//EN"
 "http://www.w3.org/TR/2001/REC-SVG-20010904/DTD/svg10.dtd">
<svg version="1.0" xmlns="http://www.w3.org/2000/svg"
 width="300.000000pt" height="300.000000pt" viewBox="0 0 300.000000 300.000000"
 preserveAspectRatio="xMidYMid meet">
<metadata>
Created by potrace 1.11, written by Peter Selinger 2001-2013
</metadata>
<g transform="translate(0.000000,300.000000) scale(0.100000,-0.100000)"
fill="#000000" stroke="none">
<path d="M0 1500 l0 -1500 1500 0 1500 0 0 1500 0 1500 -1500 0 -1500 0 0
-1500z m1286 532 c97 -26 168 -66 239 -137 99 -97 133 -196 121 -353 -18 -238
-164 -426 -406 -522 -137 -55 -339 -90 -516 -90 -79 0 -96 3 -101 17 -4 10 12
53 41 109 l47 93 25 322 c14 177 23 323 21 325 -2 3 -36 -1 -76 -8 -57 -10
-73 -10 -83 1 -11 10 8 33 97 118 122 116 146 132 220 144 81 13 291 2 371
-19z m844 -4 c0 -18 -4 -71 -10 -118 -5 -47 -12 -123 -16 -170 -3 -47 -16
-192 -28 -323 -12 -131 -20 -240 -17 -241 3 -2 62 2 131 10 181 19 220 18 220
-4 0 -21 -44 -155 -61 -189 -18 -35 -53 -42 -244 -48 -99 -3 -228 -8 -288 -11
-130 -6 -132 -4 -89 99 27 66 31 90 47 297 9 124 23 321 30 439 7 117 17 216
22 220 4 4 62 20 128 35 66 15 125 29 130 31 33 11 45 4 45 -27z"/>
<path d="M1066 1821 c-8 -12 -23 -158 -41 -391 -8 -107 -17 -212 -20 -233 l-6
-39 53 7 c165 21 254 132 265 331 5 76 2 102 -16 156 -25 74 -79 144 -128 164
-36 16 -99 19 -107 5z"/>
</g>
</svg>
