<?xml version="1.0" encoding="utf-8"?>
<!-- Generator: Adobe Illustrator 24.0.2, SVG Export Plug-In . SVG Version: 6.00 Build 0)  -->
<svg version="1.1" id="Layer_1" xmlns="http://www.w3.org/2000/svg" xmlns:xlink="http://www.w3.org/1999/xlink" x="0px" y="0px"
	 viewBox="0 0 512 512" enable-background="new 0 0 512 512" xml:space="preserve">
<path fill="#E94D65" d="M470.9,67.9c-54.8-55.4-143.6-55.4-198.4,0L256,84.6l-0.7-0.7l-15.8-16c-54.8-55.4-143.6-55.4-198.4,0
	c-54.8,55.4-54.8,145.1,0,200.5l214.2,216.5l0.7,0.7l214.9-217.2C525.7,213.1,525.7,123.3,470.9,67.9z"/>
<path fill="#FFFFFF" d="M436.4,109l-4-4.9c-34.6-35-90.7-37.8-125.3-2.9l-10.4,10.5L256,157.3l-0.7-0.8l-40-44.7l0,0l-10.4-10.5
	c-34.6-35-90.7-32.1-125.3,2.9l-4,4.9c-35.4,35.8-35.4,93.7,0,129.5l179.7,179.3l1.1,1.1l180-180.4
	C471.8,202.8,471.8,144.8,436.4,109z"/>
</svg>
