<?xml version="1.0" encoding="utf-8"?>
<svg version="1.1" id="Layer_1" xmlns="http://www.w3.org/2000/svg" xmlns:xlink="http://www.w3.org/1999/xlink" x="0px" y="0px"
	 viewBox="0 0 512 512" enable-background="new 0 0 512 512" xml:space="preserve">
<path fill="#E94D65" d="M256,398.7c3.2,0,6.3,0.8,9.2,2.4l129.1,71.6l-28.2-144.9c-1.2-6.4,0.9-13,5.7-17.4l108-100.7l-146.5-18
	c-6.5-0.8-12.1-4.9-14.8-10.8L256,47.1l-62.4,133.8c-2.8,5.9-8.4,10-14.8,10.8l-146.5,18l108,100.7c4.8,4.4,6.9,11,5.7,17.4
	l-28.2,144.9L246.8,401C249.7,399.5,252.8,398.7,256,398.7z"/>
<path fill="#17223B" d="M232.6,38.8l8.1-17.3c2.8-6,8.8-9.8,15.4-9.8s12.6,3.8,15.4,9.8l67.4,144.6l158.3,19.4
	c6.5,0.8,12,5.3,14.1,11.6c2,6.3,0.3,13.1-4.6,17.6L389.9,323.5l30.4,156.6c1.3,6.5-1.3,13.1-6.7,17c-3,2.1-6.5,3.2-10,3.2
	c-2.8,0-5.7-0.7-8.2-2.1L256,420.8l-139.5,77.3c-5.8,3.2-12.9,2.8-18.2-1.1c-5.3-3.9-7.9-10.5-6.7-17l30.4-156.6L5.4,214.7
	c-4.8-4.5-6.6-11.4-4.6-17.6c2-6.3,7.5-10.8,14.1-11.6l158.3-19.4l41.4-88.8L232.6,38.8z M256,384.5c2.8,0,5.7,0.7,8.2,2.1
	l115.9,64.3l-25.3-130.1c-1.1-5.7,0.8-11.6,5.1-15.6l96.9-90.4l-131.6-16.2c-5.8-0.7-10.8-4.4-13.3-9.7L256,68.8l-56,120.1
	c-2.5,5.3-7.5,9-13.3,9.7L55.1,214.7l96.9,90.4c4.3,4,6.2,9.9,5.1,15.6l-25.3,130.1l115.9-64.3C250.3,385.2,253.2,384.5,256,384.5z"
	/>
</svg>
