<?xml version="1.0" encoding="utf-8"?>
<!-- Generator: Adobe Illustrator 24.0.2, SVG Export Plug-In . SVG Version: 6.00 Build 0)  -->
<svg version="1.1" id="Layer_1" xmlns="http://www.w3.org/2000/svg" xmlns:xlink="http://www.w3.org/1999/xlink" x="0px" y="0px"
	 viewBox="0 0 480 480" enable-background="new 0 0 480 480" xml:space="preserve">
<path fill="#FFFFFF" d="M240,0C107.5,0,0,107.5,0,240s107.5,240,240,240s240-107.5,240-240C479.9,107.5,372.5,0.1,240,0z M240,464
	C116.3,464,16,363.7,16,240S116.3,16,240,16s224,100.3,224,224C463.9,363.7,363.7,463.9,240,464z"/>
<path fill="#FFFFFF" d="M355.6,232.8l-192-96c-2.5-1.2-5.4-1.1-7.8,0.4c-2.4,1.5-3.8,4-3.8,6.8v192c0,2.8,1.4,5.4,3.8,6.8
	c2.4,1.5,5.3,1.6,7.8,0.4l192-96c2.7-1.4,4.4-4.1,4.4-7.2C360,237,358.3,234.2,355.6,232.8L355.6,232.8z"/>
<polygon fill="#FFFFFF" points="168,323.1 168,156.9 334.1,240 "/>
</svg>
